<svg width="250" height="250" viewBox="0 0 250 250" fill="none" xmlns="http://www.w3.org/2000/svg">
<path d="M249.859 130.934C248.482 159.909 237.071 187.503 217.58 208.988L183.968 178.495C196.382 164.811 203.651 147.235 204.528 128.779L249.859 130.934Z" fill="#981E37"/>
<path d="M0.140911 119.066C1.51788 90.0912 12.9294 62.4969 32.4198 41.0125L66.0321 71.5051C53.6179 85.1894 46.3495 102.765 45.4724 121.221L0.140911 119.066Z" fill="#981E37"/>
<path d="M119.066 249.859C90.0912 248.482 62.4969 237.071 41.0125 217.58L71.5051 183.968C85.1894 196.382 102.765 203.651 121.221 204.528L119.066 249.859Z" fill="#981E37"/>
<path d="M130.934 0.140916C159.909 1.51789 187.503 12.9294 208.988 32.4198L178.495 66.0321C164.811 53.6179 147.235 46.3495 128.779 45.4724L130.934 0.140916Z" fill="#981E37"/>
<path d="M249.859 119.066C248.482 90.0912 237.071 62.4969 217.58 41.0125L183.968 71.5051C196.382 85.1894 203.651 102.765 204.528 121.221L249.859 119.066Z" fill="#F7F8FA"/>
<path d="M119.066 0.140905C90.0912 1.51788 62.497 12.9294 41.0125 32.4198L71.5051 66.0321C85.1894 53.6179 102.765 46.3494 121.221 45.4724L119.066 0.140905Z" fill="#F7F8FA"/>
<path d="M0.140911 130.934C1.51788 159.909 12.9294 187.503 32.4198 208.988L66.0321 178.495C53.6179 164.811 46.3495 147.235 45.4724 128.779L0.140911 130.934Z" fill="#F7F8FA"/>
<path d="M130.934 249.859C159.909 248.482 187.503 237.071 208.987 217.58L178.495 183.968C164.811 196.382 147.235 203.651 128.779 204.528L130.934 249.859Z" fill="#F7F8FA"/>
<circle cx="125" cy="125" r="70" fill="#981E37"/>
<path d="M83.9483 96.5H93.3983V146H83.0483V108.2L72.3233 115.1L67.5983 107.375L83.9483 96.5ZM125.016 95.6C131.366 95.6 136.141 97.65 139.341 101.75C142.591 105.8 144.216 112.375 144.216 121.475C144.216 126.025 143.816 129.9 143.016 133.1C142.216 136.3 141.016 138.925 139.416 140.975C137.816 143.025 135.816 144.525 133.416 145.475C131.016 146.425 128.216 146.9 125.016 146.9C121.816 146.9 119.016 146.425 116.616 145.475C114.216 144.525 112.216 143.025 110.616 140.975C109.016 138.925 107.816 136.3 107.016 133.1C106.216 129.9 105.816 126.025 105.816 121.475C105.816 118.125 106.066 114.9 106.566 111.8C107.116 108.65 108.091 105.875 109.491 103.475C110.941 101.075 112.891 99.175 115.341 97.775C117.841 96.325 121.066 95.6 125.016 95.6ZM133.566 121.25C133.566 115.1 132.916 110.775 131.616 108.275C130.366 105.825 128.191 104.6 125.091 104.6C123.541 104.6 122.216 104.9 121.116 105.5C120.066 106.1 119.191 107.05 118.491 108.35C117.791 109.65 117.266 111.375 116.916 113.525C116.616 115.625 116.466 118.225 116.466 121.325C116.466 124.375 116.616 126.975 116.916 129.125C117.266 131.225 117.791 132.925 118.491 134.225C119.191 135.525 120.091 136.475 121.191 137.075C122.291 137.625 123.591 137.9 125.091 137.9C128.191 137.9 130.366 136.675 131.616 134.225C132.916 131.725 133.566 127.4 133.566 121.25ZM166.984 95.6C173.334 95.6 178.109 97.65 181.309 101.75C184.559 105.8 186.184 112.375 186.184 121.475C186.184 126.025 185.784 129.9 184.984 133.1C184.184 136.3 182.984 138.925 181.384 140.975C179.784 143.025 177.784 144.525 175.384 145.475C172.984 146.425 170.184 146.9 166.984 146.9C163.784 146.9 160.984 146.425 158.584 145.475C156.184 144.525 154.184 143.025 152.584 140.975C150.984 138.925 149.784 136.3 148.984 133.1C148.184 129.9 147.784 126.025 147.784 121.475C147.784 118.125 148.034 114.9 148.534 111.8C149.084 108.65 150.059 105.875 151.459 103.475C152.909 101.075 154.859 99.175 157.309 97.775C159.809 96.325 163.034 95.6 166.984 95.6ZM175.534 121.25C175.534 115.1 174.884 110.775 173.584 108.275C172.334 105.825 170.159 104.6 167.059 104.6C165.509 104.6 164.184 104.9 163.084 105.5C162.034 106.1 161.159 107.05 160.459 108.35C159.759 109.65 159.234 111.375 158.884 113.525C158.584 115.625 158.434 118.225 158.434 121.325C158.434 124.375 158.584 126.975 158.884 129.125C159.234 131.225 159.759 132.925 160.459 134.225C161.159 135.525 162.059 136.475 163.159 137.075C164.259 137.625 165.559 137.9 167.059 137.9C170.159 137.9 172.334 136.675 173.584 134.225C174.884 131.725 175.534 127.4 175.534 121.25Z" fill="#F7F8FA"/>
</svg>
