<svg width="250" height="250" viewBox="0 0 250 250" fill="none" xmlns="http://www.w3.org/2000/svg">
<path d="M249.859 130.934C248.482 159.909 237.071 187.503 217.58 208.988L183.968 178.495C196.382 164.811 203.651 147.235 204.528 128.779L249.859 130.934Z" fill="#00BAED"/>
<path d="M0.140911 119.066C1.51788 90.0912 12.9294 62.4969 32.4198 41.0125L66.0321 71.5051C53.6179 85.1894 46.3495 102.765 45.4724 121.221L0.140911 119.066Z" fill="#00BAED"/>
<path d="M119.066 249.859C90.0912 248.482 62.4969 237.071 41.0125 217.58L71.5051 183.968C85.1894 196.382 102.765 203.651 121.221 204.528L119.066 249.859Z" fill="#00BAED"/>
<path d="M130.934 0.140916C159.909 1.51789 187.503 12.9294 208.988 32.4198L178.495 66.0321C164.811 53.6179 147.235 46.3495 128.779 45.4724L130.934 0.140916Z" fill="#00BAED"/>
<path d="M249.859 119.066C248.482 90.0912 237.071 62.4969 217.58 41.0125L183.968 71.5051C196.382 85.1894 203.651 102.765 204.528 121.221L249.859 119.066Z" fill="#F7F8FA"/>
<path d="M119.066 0.140905C90.0912 1.51788 62.497 12.9294 41.0125 32.4198L71.5051 66.0321C85.1894 53.6179 102.765 46.3494 121.221 45.4724L119.066 0.140905Z" fill="#F7F8FA"/>
<path d="M0.140911 130.934C1.51788 159.909 12.9294 187.503 32.4198 208.988L66.0321 178.495C53.6179 164.811 46.3495 147.235 45.4724 128.779L0.140911 130.934Z" fill="#F7F8FA"/>
<path d="M130.934 249.859C159.909 248.482 187.503 237.071 208.987 217.58L178.495 183.968C164.811 196.382 147.235 203.651 128.779 204.528L130.934 249.859Z" fill="#F7F8FA"/>
<circle cx="125" cy="125" r="70" fill="#00BAED"/>
<path d="M85.523 98.8H94.343V145H84.683V109.72L74.673 116.16L70.263 108.95L85.523 98.8ZM123.853 97.96C129.78 97.96 134.236 99.8733 137.223 103.7C140.256 107.48 141.773 113.617 141.773 122.11C141.773 126.357 141.4 129.973 140.653 132.96C139.906 135.947 138.786 138.397 137.293 140.31C135.8 142.223 133.933 143.623 131.693 144.51C129.453 145.397 126.84 145.84 123.853 145.84C120.866 145.84 118.253 145.397 116.013 144.51C113.773 143.623 111.906 142.223 110.413 140.31C108.92 138.397 107.8 135.947 107.053 132.96C106.306 129.973 105.933 126.357 105.933 122.11C105.933 118.983 106.166 115.973 106.633 113.08C107.146 110.14 108.056 107.55 109.363 105.31C110.716 103.07 112.536 101.297 114.823 99.99C117.156 98.6367 120.166 97.96 123.853 97.96ZM131.833 121.9C131.833 116.16 131.226 112.123 130.013 109.79C128.846 107.503 126.816 106.36 123.923 106.36C122.476 106.36 121.24 106.64 120.213 107.2C119.233 107.76 118.416 108.647 117.763 109.86C117.11 111.073 116.62 112.683 116.293 114.69C116.013 116.65 115.873 119.077 115.873 121.97C115.873 124.817 116.013 127.243 116.293 129.25C116.62 131.21 117.11 132.797 117.763 134.01C118.416 135.223 119.256 136.11 120.283 136.67C121.31 137.183 122.523 137.44 123.923 137.44C126.816 137.44 128.846 136.297 130.013 134.01C131.226 131.677 131.833 127.64 131.833 121.9ZM158.263 126.73V145H148.603V97.4H158.263V118.33L164.703 117.63L172.543 97.4H183.533L173.173 121.27L183.813 145H172.683L164.703 126.03L158.263 126.73Z" fill="#F7F8FA"/>
</svg>
