<svg width="250" height="250" viewBox="0 0 250 250" fill="none" xmlns="http://www.w3.org/2000/svg">
<path d="M249.859 130.934C248.482 159.909 237.071 187.503 217.58 208.988L183.968 178.495C196.382 164.811 203.651 147.235 204.528 128.779L249.859 130.934Z" fill="#49AD4E"/>
<path d="M0.140911 119.066C1.51788 90.0912 12.9294 62.4969 32.4198 41.0125L66.0321 71.5051C53.6179 85.1894 46.3495 102.765 45.4724 121.221L0.140911 119.066Z" fill="#49AD4E"/>
<path d="M119.066 249.859C90.0912 248.482 62.4969 237.071 41.0125 217.58L71.5051 183.968C85.1894 196.382 102.765 203.651 121.221 204.528L119.066 249.859Z" fill="#49AD4E"/>
<path d="M130.934 0.140916C159.909 1.51789 187.503 12.9294 208.988 32.4198L178.495 66.0321C164.811 53.6179 147.235 46.3495 128.779 45.4724L130.934 0.140916Z" fill="#49AD4E"/>
<path d="M249.859 119.066C248.482 90.0912 237.071 62.4969 217.58 41.0125L183.968 71.5051C196.382 85.1894 203.651 102.765 204.528 121.221L249.859 119.066Z" fill="#F7F8FA"/>
<path d="M119.066 0.140905C90.0912 1.51788 62.497 12.9294 41.0125 32.4198L71.5051 66.0321C85.1894 53.6179 102.765 46.3494 121.221 45.4724L119.066 0.140905Z" fill="#F7F8FA"/>
<path d="M0.140911 130.934C1.51788 159.909 12.9294 187.503 32.4198 208.988L66.0321 178.495C53.6179 164.811 46.3495 147.235 45.4724 128.779L0.140911 130.934Z" fill="#F7F8FA"/>
<path d="M130.934 249.859C159.909 248.482 187.503 237.071 208.987 217.58L178.495 183.968C164.811 196.382 147.235 203.651 128.779 204.528L130.934 249.859Z" fill="#F7F8FA"/>
<circle cx="125" cy="125" r="70" fill="#49AD4E"/>
<path d="M119.009 139.2V150H80.4887V139.47L93.1787 126.6C95.4587 124.26 97.3487 122.25 98.8487 120.57C100.409 118.89 101.639 117.36 102.539 115.98C103.499 114.54 104.189 113.22 104.609 112.02C105.029 110.76 105.239 109.44 105.239 108.06C105.239 105.24 104.489 103.29 102.989 102.21C101.549 101.07 99.4787 100.5 96.7787 100.5C92.8187 100.5 88.4387 100.86 83.6387 101.58L81.4787 101.85L80.8487 92.22C86.7287 90.42 92.8187 89.52 99.1187 89.52C111.719 89.52 118.019 95.19 118.019 106.53C118.019 108.75 117.779 110.79 117.299 112.65C116.879 114.45 116.159 116.25 115.139 118.05C114.119 119.85 112.739 121.68 110.999 123.54C109.319 125.4 107.219 127.5 104.699 129.84L94.3487 139.2H119.009ZM132.83 90.6H169.1V101.4H142.55L141.02 114.27C144.74 112.83 148.28 112.11 151.64 112.11C164.48 112.11 170.9 118.08 170.9 130.02C170.9 136.74 169.13 141.93 165.59 145.59C162.11 149.25 157.1 151.08 150.56 151.08C149.18 151.08 147.68 150.99 146.06 150.81C144.44 150.69 142.82 150.51 141.2 150.27C139.58 150.03 138.02 149.76 136.52 149.46C135.08 149.16 133.82 148.86 132.74 148.56L129.5 147.75L130.85 138.57C134.51 139.17 137.84 139.62 140.84 139.92C143.84 140.16 146.57 140.28 149.03 140.28C151.97 140.28 154.22 139.5 155.78 137.94C157.34 136.38 158.12 134.13 158.12 131.19C158.12 128.31 157.46 126.21 156.14 124.89C154.82 123.57 152.96 122.91 150.56 122.91C146.42 122.91 142.88 123.3 139.94 124.08L138.59 124.44L131.21 122.73L132.83 90.6Z" fill="#F7F8FA"/>
</svg>
