<svg width="250" height="250" viewBox="0 0 250 250" fill="none" xmlns="http://www.w3.org/2000/svg">
<path d="M249.859 130.934C248.482 159.909 237.071 187.503 217.58 208.988L183.968 178.495C196.382 164.811 203.651 147.235 204.528 128.779L249.859 130.934Z" fill="#D98D1D"/>
<path d="M0.140911 119.066C1.51788 90.0912 12.9294 62.4969 32.4198 41.0125L66.0321 71.5051C53.6179 85.1894 46.3495 102.765 45.4724 121.221L0.140911 119.066Z" fill="#D98D1D"/>
<path d="M119.066 249.859C90.0912 248.482 62.4969 237.071 41.0125 217.58L71.5051 183.968C85.1894 196.382 102.765 203.651 121.221 204.528L119.066 249.859Z" fill="#D98D1D"/>
<path d="M130.934 0.140916C159.909 1.51789 187.503 12.9294 208.988 32.4198L178.495 66.0321C164.811 53.6179 147.235 46.3495 128.779 45.4724L130.934 0.140916Z" fill="#D98D1D"/>
<path d="M249.859 119.066C248.482 90.0912 237.071 62.4969 217.58 41.0125L183.968 71.5051C196.382 85.1894 203.651 102.765 204.528 121.221L249.859 119.066Z" fill="#F7F8FA"/>
<path d="M119.066 0.140905C90.0912 1.51788 62.497 12.9294 41.0125 32.4198L71.5051 66.0321C85.1894 53.6179 102.765 46.3494 121.221 45.4724L119.066 0.140905Z" fill="#F7F8FA"/>
<path d="M0.140911 130.934C1.51788 159.909 12.9294 187.503 32.4198 208.988L66.0321 178.495C53.6179 164.811 46.3495 147.235 45.4724 128.779L0.140911 130.934Z" fill="#F7F8FA"/>
<path d="M130.934 249.859C159.909 248.482 187.503 237.071 208.987 217.58L178.495 183.968C164.811 196.382 147.235 203.651 128.779 204.528L130.934 249.859Z" fill="#F7F8FA"/>
<circle cx="125" cy="125" r="70" fill="#D98D1D"/>
<path d="M88.6838 134.04V141H63.8598V134.214L72.0378 125.92C73.5072 124.412 74.7252 123.117 75.6918 122.034C76.6972 120.951 77.4898 119.965 78.0698 119.076C78.6885 118.148 79.1332 117.297 79.4038 116.524C79.6745 115.712 79.8098 114.861 79.8098 113.972C79.8098 112.155 79.3265 110.898 78.3598 110.202C77.4318 109.467 76.0978 109.1 74.3578 109.1C71.8058 109.1 68.9832 109.332 65.8898 109.796L64.4978 109.97L64.0918 103.764C67.8812 102.604 71.8058 102.024 75.8658 102.024C83.9858 102.024 88.0458 105.678 88.0458 112.986C88.0458 114.417 87.8912 115.731 87.5818 116.93C87.3112 118.09 86.8472 119.25 86.1898 120.41C85.5325 121.57 84.6432 122.749 83.5218 123.948C82.4392 125.147 81.0858 126.5 79.4618 128.008L72.7918 134.04H88.6838ZM97.5909 102.72H120.965V109.68H103.855L102.869 117.974C105.266 117.046 107.548 116.582 109.713 116.582C117.988 116.582 122.125 120.429 122.125 128.124C122.125 132.455 120.984 135.799 118.703 138.158C116.46 140.517 113.232 141.696 109.017 141.696C108.128 141.696 107.161 141.638 106.117 141.522C105.073 141.445 104.029 141.329 102.985 141.174C101.941 141.019 100.936 140.845 99.9689 140.652C99.0409 140.459 98.2289 140.265 97.5329 140.072L95.4449 139.55L96.3149 133.634C98.6736 134.021 100.82 134.311 102.753 134.504C104.686 134.659 106.446 134.736 108.031 134.736C109.926 134.736 111.376 134.233 112.381 133.228C113.386 132.223 113.889 130.773 113.889 128.878C113.889 127.022 113.464 125.669 112.613 124.818C111.762 123.967 110.564 123.542 109.017 123.542C106.349 123.542 104.068 123.793 102.173 124.296L101.303 124.528L96.5469 123.426L97.5909 102.72ZM141.24 102.024C146.151 102.024 149.843 103.609 152.318 106.78C154.831 109.912 156.088 114.997 156.088 122.034C156.088 125.553 155.779 128.549 155.16 131.024C154.541 133.499 153.613 135.529 152.376 137.114C151.139 138.699 149.592 139.859 147.736 140.594C145.88 141.329 143.715 141.696 141.24 141.696C138.765 141.696 136.6 141.329 134.744 140.594C132.888 139.859 131.341 138.699 130.104 137.114C128.867 135.529 127.939 133.499 127.32 131.024C126.701 128.549 126.392 125.553 126.392 122.034C126.392 119.443 126.585 116.949 126.972 114.552C127.397 112.116 128.151 109.97 129.234 108.114C130.355 106.258 131.863 104.789 133.758 103.706C135.691 102.585 138.185 102.024 141.24 102.024ZM147.852 121.86C147.852 117.104 147.349 113.759 146.344 111.826C145.377 109.931 143.695 108.984 141.298 108.984C140.099 108.984 139.075 109.216 138.224 109.68C137.412 110.144 136.735 110.879 136.194 111.884C135.653 112.889 135.247 114.223 134.976 115.886C134.744 117.51 134.628 119.521 134.628 121.918C134.628 124.277 134.744 126.287 134.976 127.95C135.247 129.574 135.653 130.889 136.194 131.894C136.735 132.899 137.431 133.634 138.282 134.098C139.133 134.523 140.138 134.736 141.298 134.736C143.695 134.736 145.377 133.789 146.344 131.894C147.349 129.961 147.852 126.616 147.852 121.86ZM173.695 102.024C178.606 102.024 182.298 103.609 184.773 106.78C187.286 109.912 188.543 114.997 188.543 122.034C188.543 125.553 188.234 128.549 187.615 131.024C186.996 133.499 186.068 135.529 184.831 137.114C183.594 138.699 182.047 139.859 180.191 140.594C178.335 141.329 176.17 141.696 173.695 141.696C171.22 141.696 169.055 141.329 167.199 140.594C165.343 139.859 163.796 138.699 162.559 137.114C161.322 135.529 160.394 133.499 159.775 131.024C159.156 128.549 158.847 125.553 158.847 122.034C158.847 119.443 159.04 116.949 159.427 114.552C159.852 112.116 160.606 109.97 161.689 108.114C162.81 106.258 164.318 104.789 166.213 103.706C168.146 102.585 170.64 102.024 173.695 102.024ZM180.307 121.86C180.307 117.104 179.804 113.759 178.799 111.826C177.832 109.931 176.15 108.984 173.753 108.984C172.554 108.984 171.53 109.216 170.679 109.68C169.867 110.144 169.19 110.879 168.649 111.884C168.108 112.889 167.702 114.223 167.431 115.886C167.199 117.51 167.083 119.521 167.083 121.918C167.083 124.277 167.199 126.287 167.431 127.95C167.702 129.574 168.108 130.889 168.649 131.894C169.19 132.899 169.886 133.634 170.737 134.098C171.588 134.523 172.593 134.736 173.753 134.736C176.15 134.736 177.832 133.789 178.799 131.894C179.804 129.961 180.307 126.616 180.307 121.86Z" fill="#F7F8FA"/>
</svg>
