<svg width="250" height="250" viewBox="0 0 250 250" fill="none" xmlns="http://www.w3.org/2000/svg">
<path d="M249.859 130.934C248.482 159.909 237.071 187.503 217.58 208.988L183.968 178.495C196.382 164.811 203.651 147.235 204.528 128.779L249.859 130.934Z" fill="#E31A3C"/>
<path d="M0.140911 119.066C1.51788 90.0912 12.9294 62.4969 32.4198 41.0125L66.0321 71.5051C53.6179 85.1894 46.3495 102.765 45.4724 121.221L0.140911 119.066Z" fill="#E31A3C"/>
<path d="M119.066 249.859C90.0912 248.482 62.4969 237.071 41.0125 217.58L71.5051 183.968C85.1894 196.382 102.765 203.651 121.221 204.528L119.066 249.859Z" fill="#E31A3C"/>
<path d="M130.934 0.140916C159.909 1.51789 187.503 12.9294 208.988 32.4198L178.495 66.0321C164.811 53.6179 147.235 46.3495 128.779 45.4724L130.934 0.140916Z" fill="#E31A3C"/>
<path d="M249.859 119.066C248.482 90.0912 237.071 62.4969 217.58 41.0125L183.968 71.5051C196.382 85.1894 203.651 102.765 204.528 121.221L249.859 119.066Z" fill="#F7F8FA"/>
<path d="M119.066 0.140905C90.0912 1.51788 62.497 12.9294 41.0125 32.4198L71.5051 66.0321C85.1894 53.6179 102.765 46.3494 121.221 45.4724L119.066 0.140905Z" fill="#F7F8FA"/>
<path d="M0.140911 130.934C1.51788 159.909 12.9294 187.503 32.4198 208.988L66.0321 178.495C53.6179 164.811 46.3495 147.235 45.4724 128.779L0.140911 130.934Z" fill="#F7F8FA"/>
<path d="M130.934 249.859C159.909 248.482 187.503 237.071 208.987 217.58L178.495 183.968C164.811 196.382 147.235 203.651 128.779 204.528L130.934 249.859Z" fill="#F7F8FA"/>
<circle cx="125" cy="125" r="70" fill="#E31A3C"/>
<path d="M105.721 87H146.021V99H116.521L114.821 113.3C118.955 111.7 122.888 110.9 126.621 110.9C140.888 110.9 148.021 117.533 148.021 130.8C148.021 138.267 146.055 144.033 142.121 148.1C138.255 152.167 132.688 154.2 125.421 154.2C123.888 154.2 122.221 154.1 120.421 153.9C118.621 153.767 116.821 153.567 115.021 153.3C113.221 153.033 111.488 152.733 109.821 152.4C108.221 152.067 106.821 151.733 105.621 151.4L102.021 150.5L103.521 140.3C107.588 140.967 111.288 141.467 114.621 141.8C117.955 142.067 120.988 142.2 123.721 142.2C126.988 142.2 129.488 141.333 131.221 139.6C132.955 137.867 133.821 135.367 133.821 132.1C133.821 128.9 133.088 126.567 131.621 125.1C130.155 123.633 128.088 122.9 125.421 122.9C120.821 122.9 116.888 123.333 113.621 124.2L112.121 124.6L103.921 122.7L105.721 87Z" fill="#F7F8FA"/>
</svg>
