<svg width="250" height="250" viewBox="0 0 250 250" fill="none" xmlns="http://www.w3.org/2000/svg">
<path d="M249.859 130.934C248.482 159.909 237.071 187.503 217.58 208.988L183.968 178.495C196.382 164.811 203.651 147.235 204.528 128.779L249.859 130.934Z" fill="#CF479B"/>
<path d="M0.140911 119.066C1.51788 90.0912 12.9294 62.4969 32.4198 41.0125L66.0321 71.5051C53.6179 85.1894 46.3495 102.765 45.4724 121.221L0.140911 119.066Z" fill="#CF479B"/>
<path d="M119.066 249.859C90.0912 248.482 62.4969 237.071 41.0125 217.58L71.5051 183.968C85.1894 196.382 102.765 203.651 121.221 204.528L119.066 249.859Z" fill="#CF479B"/>
<path d="M130.934 0.140916C159.909 1.51789 187.503 12.9294 208.988 32.4198L178.495 66.0321C164.811 53.6179 147.235 46.3495 128.779 45.4724L130.934 0.140916Z" fill="#CF479B"/>
<path d="M249.859 119.066C248.482 90.0912 237.071 62.4969 217.58 41.0125L183.968 71.5051C196.382 85.1894 203.651 102.765 204.528 121.221L249.859 119.066Z" fill="#F7F8FA"/>
<path d="M119.066 0.140905C90.0912 1.51788 62.497 12.9294 41.0125 32.4198L71.5051 66.0321C85.1894 53.6179 102.765 46.3494 121.221 45.4724L119.066 0.140905Z" fill="#F7F8FA"/>
<path d="M0.140911 130.934C1.51788 159.909 12.9294 187.503 32.4198 208.988L66.0321 178.495C53.6179 164.811 46.3495 147.235 45.4724 128.779L0.140911 130.934Z" fill="#F7F8FA"/>
<path d="M130.934 249.859C159.909 248.482 187.503 237.071 208.987 217.58L178.495 183.968C164.811 196.382 147.235 203.651 128.779 204.528L130.934 249.859Z" fill="#F7F8FA"/>
<circle cx="125" cy="125" r="70" fill="#CF479B"/>
<path d="M65.1358 102.72H88.5098V109.68H71.3998L70.4138 117.974C72.8112 117.046 75.0925 116.582 77.2578 116.582C85.5325 116.582 89.6698 120.429 89.6698 128.124C89.6698 132.455 88.5292 135.799 86.2478 138.158C84.0052 140.517 80.7765 141.696 76.5618 141.696C75.6725 141.696 74.7058 141.638 73.6618 141.522C72.6178 141.445 71.5738 141.329 70.5298 141.174C69.4858 141.019 68.4805 140.845 67.5138 140.652C66.5858 140.459 65.7738 140.265 65.0778 140.072L62.9898 139.55L63.8598 133.634C66.2185 134.021 68.3645 134.311 70.2978 134.504C72.2312 134.659 73.9905 134.736 75.5758 134.736C77.4705 134.736 78.9205 134.233 79.9258 133.228C80.9312 132.223 81.4338 130.773 81.4338 128.878C81.4338 127.022 81.0085 125.669 80.1578 124.818C79.3072 123.967 78.1085 123.542 76.5618 123.542C73.8938 123.542 71.6125 123.793 69.7178 124.296L68.8478 124.528L64.0918 123.426L65.1358 102.72ZM108.785 102.024C113.696 102.024 117.388 103.609 119.863 106.78C122.376 109.912 123.633 114.997 123.633 122.034C123.633 125.553 123.324 128.549 122.705 131.024C122.086 133.499 121.158 135.529 119.921 137.114C118.684 138.699 117.137 139.859 115.281 140.594C113.425 141.329 111.26 141.696 108.785 141.696C106.31 141.696 104.145 141.329 102.289 140.594C100.433 139.859 98.8863 138.699 97.6489 137.114C96.4116 135.529 95.4836 133.499 94.8649 131.024C94.2463 128.549 93.9369 125.553 93.9369 122.034C93.9369 119.443 94.1303 116.949 94.5169 114.552C94.9423 112.116 95.6963 109.97 96.7789 108.114C97.9003 106.258 99.4083 104.789 101.303 103.706C103.236 102.585 105.73 102.024 108.785 102.024ZM115.397 121.86C115.397 117.104 114.894 113.759 113.889 111.826C112.922 109.931 111.24 108.984 108.843 108.984C107.644 108.984 106.62 109.216 105.769 109.68C104.957 110.144 104.28 110.879 103.739 111.884C103.198 112.889 102.792 114.223 102.521 115.886C102.289 117.51 102.173 119.521 102.173 121.918C102.173 124.277 102.289 126.287 102.521 127.95C102.792 129.574 103.198 130.889 103.739 131.894C104.28 132.899 104.976 133.634 105.827 134.098C106.678 134.523 107.683 134.736 108.843 134.736C111.24 134.736 112.922 133.789 113.889 131.894C114.894 129.961 115.397 126.616 115.397 121.86ZM141.24 102.024C146.151 102.024 149.843 103.609 152.318 106.78C154.831 109.912 156.088 114.997 156.088 122.034C156.088 125.553 155.779 128.549 155.16 131.024C154.541 133.499 153.613 135.529 152.376 137.114C151.139 138.699 149.592 139.859 147.736 140.594C145.88 141.329 143.715 141.696 141.24 141.696C138.765 141.696 136.6 141.329 134.744 140.594C132.888 139.859 131.341 138.699 130.104 137.114C128.867 135.529 127.939 133.499 127.32 131.024C126.701 128.549 126.392 125.553 126.392 122.034C126.392 119.443 126.585 116.949 126.972 114.552C127.397 112.116 128.151 109.97 129.234 108.114C130.355 106.258 131.863 104.789 133.758 103.706C135.691 102.585 138.185 102.024 141.24 102.024ZM147.852 121.86C147.852 117.104 147.349 113.759 146.344 111.826C145.377 109.931 143.695 108.984 141.298 108.984C140.099 108.984 139.075 109.216 138.224 109.68C137.412 110.144 136.735 110.879 136.194 111.884C135.653 112.889 135.247 114.223 134.976 115.886C134.744 117.51 134.628 119.521 134.628 121.918C134.628 124.277 134.744 126.287 134.976 127.95C135.247 129.574 135.653 130.889 136.194 131.894C136.735 132.899 137.431 133.634 138.282 134.098C139.133 134.523 140.138 134.736 141.298 134.736C143.695 134.736 145.377 133.789 146.344 131.894C147.349 129.961 147.852 126.616 147.852 121.86ZM173.695 102.024C178.606 102.024 182.298 103.609 184.773 106.78C187.286 109.912 188.543 114.997 188.543 122.034C188.543 125.553 188.234 128.549 187.615 131.024C186.996 133.499 186.068 135.529 184.831 137.114C183.594 138.699 182.047 139.859 180.191 140.594C178.335 141.329 176.17 141.696 173.695 141.696C171.22 141.696 169.055 141.329 167.199 140.594C165.343 139.859 163.796 138.699 162.559 137.114C161.322 135.529 160.394 133.499 159.775 131.024C159.156 128.549 158.847 125.553 158.847 122.034C158.847 119.443 159.04 116.949 159.427 114.552C159.852 112.116 160.606 109.97 161.689 108.114C162.81 106.258 164.318 104.789 166.213 103.706C168.146 102.585 170.64 102.024 173.695 102.024ZM180.307 121.86C180.307 117.104 179.804 113.759 178.799 111.826C177.832 109.931 176.15 108.984 173.753 108.984C172.554 108.984 171.53 109.216 170.679 109.68C169.867 110.144 169.19 110.879 168.649 111.884C168.108 112.889 167.702 114.223 167.431 115.886C167.199 117.51 167.083 119.521 167.083 121.918C167.083 124.277 167.199 126.287 167.431 127.95C167.702 129.574 168.108 130.889 168.649 131.894C169.19 132.899 169.886 133.634 170.737 134.098C171.588 134.523 172.593 134.736 173.753 134.736C176.15 134.736 177.832 133.789 178.799 131.894C179.804 129.961 180.307 126.616 180.307 121.86Z" fill="#F7F8FA"/>
</svg>
