<svg width="25" height="35" viewBox="0 0 25 35" fill="none" xmlns="http://www.w3.org/2000/svg">
<path d="M22 0H3C1.34315 0 0 1.34315 0 3V31.9398C0 33.5966 1.34315 34.9398 3 34.9398H22C23.6568 34.9398 25 33.5966 25 31.9398V3C25 1.34315 23.6568 0 22 0Z" fill="#F7F8FA"/>
<path d="M7.0685 17.4699C9.64805 17.4699 11.1446 16.1517 11.1446 13.4356V11.9178C11.1446 9.60105 10.0419 8.52255 8.13185 8.52255C6.8519 8.52255 6.04455 9.1816 5.63105 10.0404V7.18445C5.63105 5.72655 6.06425 4.98758 7.14725 4.98758C8.0334 4.98758 8.4075 5.50685 8.4075 6.48545V7.4441H11.0462V6.4455C11.0265 4.02895 9.7662 2.71082 7.18665 2.71082C4.44955 2.71082 3.01208 4.16875 3.01208 7.12455V13.0561C3.01208 16.0319 4.44956 17.4699 7.0685 17.4699ZM7.1079 10.5797C8.15155 10.5797 8.54535 11.2188 8.54535 12.1175V13.2958C8.54535 14.4142 8.09245 15.0533 7.0685 15.0533C6.04455 15.0533 5.63105 14.3942 5.63105 12.9563V11.5383C5.86735 10.9591 6.3793 10.5797 7.1079 10.5797Z" fill="black"/>
<path d="M19.9388 24.3098C19.9388 24.6183 19.8908 24.9159 19.8038 25.1956H19.8056C21.2081 25.3922 22.2892 26.6099 22.2892 28.0891C22.2892 29.7037 21.0004 31.0134 19.4115 31.0134C18.3073 31.0134 17.3504 30.382 16.8675 29.4566C16.3829 30.382 15.426 31.0134 14.3235 31.0134C12.7347 31.0134 11.4458 29.7001 11.4458 28.0891C11.4458 26.4782 12.7258 25.1721 14.3093 25.1649C14.2277 24.8943 14.1833 24.6075 14.1833 24.3098C14.1833 22.6953 15.4722 21.3856 17.061 21.3856C18.6499 21.3856 19.9388 22.6953 19.9388 24.3098Z" fill="black"/>
<path d="M16.8657 30.2917L14.9608 32.2274H18.7723L16.8657 30.2917Z" fill="black"/>
</svg>
