<svg width="25" height="35" viewBox="0 0 25 35" fill="none" xmlns="http://www.w3.org/2000/svg">
<path d="M22 0H3C1.34315 0 0 1.34315 0 3V31.9398C0 33.5966 1.34315 34.9398 3 34.9398H22C23.6569 34.9398 25 33.5966 25 31.9398V3C25 1.34315 23.6569 0 22 0Z" fill="#F7F8FA"/>
<path d="M3.01196 2.71082V17.1686H5.57745V11.6235L6.5548 9.849L6.7177 10.5951L8.8556 17.1686H11.7469L8.5095 8.0342L11.5229 2.71082H8.57055L5.6589 8.17535L5.53675 8.51815L5.57745 7.8124V2.71082H3.01196Z" fill="black"/>
<path d="M19.9388 24.3098C19.9388 24.6183 19.8908 24.9159 19.8038 25.1956H19.8056C21.2081 25.3922 22.2892 26.6099 22.2892 28.0891C22.2892 29.7037 21.0004 31.0134 19.4115 31.0134C18.3073 31.0134 17.3504 30.382 16.8675 29.4566C16.3829 30.382 15.426 31.0134 14.3235 31.0134C12.7347 31.0134 11.4458 29.7001 11.4458 28.0891C11.4458 26.4782 12.7258 25.1721 14.3093 25.1649C14.2277 24.8943 14.1833 24.6075 14.1833 24.3098C14.1833 22.6953 15.4722 21.3856 17.061 21.3856C18.6499 21.3856 19.9388 22.6953 19.9388 24.3098Z" fill="black"/>
<path d="M16.8657 30.2917L14.9608 32.2274H18.7723L16.8657 30.2917Z" fill="black"/>
</svg>
