<svg width="25" height="35" viewBox="0 0 25 35" fill="none" xmlns="http://www.w3.org/2000/svg">
<path d="M22 0H3C1.34315 0 0 1.34315 0 3V31.9398C0 33.5966 1.34315 34.9398 3 34.9398H22C23.6569 34.9398 25 33.5966 25 31.9398V3C25 1.34315 23.6569 0 22 0Z" fill="#F7F8FA"/>
<path d="M9.34065 17.2302V14.7537H7.5007V2.91052H5.4585C5.1552 4.20868 4.56886 4.86774 3.37591 5.04749V6.94479H4.93281V14.7537H3.01196V17.2302H9.34065Z" fill="black"/>
<path d="M10.3038 13.0761C10.3038 16.0918 11.9011 17.4699 14.4892 17.4699C17.0166 17.4699 18.6746 16.0918 18.6746 13.0761V7.0846C18.6746 4.14878 17.0166 2.71082 14.4892 2.71082C11.9618 2.71082 10.3038 4.14878 10.3038 7.0846V13.0761ZM14.4892 4.98758C15.5406 4.98758 15.9652 5.6866 15.9652 7.18445V12.9363C15.9652 14.3942 15.5406 15.0933 14.4892 15.0933C13.4176 15.0933 13.0132 14.3942 13.0132 12.9363V7.18445C13.0132 5.7465 13.4176 4.98758 14.4892 4.98758Z" fill="black"/>
<path d="M19.9388 24.3098C19.9388 24.6183 19.8908 24.9159 19.8038 25.1956H19.8056C21.2081 25.3922 22.2892 26.6099 22.2892 28.0891C22.2892 29.7037 21.0004 31.0134 19.4115 31.0134C18.3073 31.0134 17.3504 30.382 16.8675 29.4566C16.3829 30.382 15.426 31.0134 14.3235 31.0134C12.7347 31.0134 11.4458 29.7001 11.4458 28.0891C11.4458 26.4782 12.7258 25.1721 14.3093 25.1649C14.2277 24.8943 14.1833 24.6075 14.1833 24.3098C14.1833 22.6953 15.4722 21.3856 17.061 21.3856C18.6499 21.3856 19.9388 22.6953 19.9388 24.3098Z" fill="black"/>
<path d="M16.8657 30.2917L14.9608 32.2274H18.7723L16.8657 30.2917Z" fill="black"/>
</svg>
