<svg width="25" height="35" viewBox="0 0 25 35" fill="none" xmlns="http://www.w3.org/2000/svg">
<path d="M22 0H3C1.34315 0 0 1.34315 0 3V31.9398C0 33.5966 1.34315 34.9398 3 34.9398H22C23.6569 34.9398 25 33.5966 25 31.9398V3C25 1.34315 23.6569 0 22 0Z" fill="#F7F8FA"/>
<path d="M3.01208 12.0102V13.9301C3.01208 16.19 4.225 17.4699 7.00875 17.4699C9.87205 17.4699 11.1446 16.0099 11.1446 13.9501V12.3902C11.1446 11.0302 10.5879 10.2104 9.534 9.83035C10.5481 9.4104 10.9656 8.57045 10.9656 7.3505V5.9506C10.9656 3.95074 9.6533 2.71082 7.0485 2.71082C4.56303 2.71082 3.13139 3.99073 3.13139 6.1306V7.7705H5.7163V6.3106C5.7163 5.49065 6.0941 5.03065 7.02865 5.03065C8.00295 5.03065 8.341 5.45065 8.341 6.3106V7.5305C8.341 8.41045 7.88365 8.8504 6.98885 8.8504H5.9748V10.9103H6.969C8.00295 10.9103 8.4603 11.2903 8.4603 12.1902V13.6101C8.4603 14.55 8.0825 15.03 7.02865 15.03C6.05435 15.03 5.63675 14.6101 5.63675 13.7101V12.0102H3.01208Z" fill="black"/>
<path d="M19.9388 24.3098C19.9388 24.6183 19.8908 24.9159 19.8038 25.1956H19.8056C21.2081 25.3922 22.2892 26.6099 22.2892 28.0891C22.2892 29.7037 21.0004 31.0134 19.4115 31.0134C18.3073 31.0134 17.3504 30.382 16.8675 29.4566C16.3829 30.382 15.426 31.0134 14.3235 31.0134C12.7347 31.0134 11.4458 29.7001 11.4458 28.0891C11.4458 26.4782 12.7258 25.1721 14.3093 25.1649C14.2277 24.8943 14.1833 24.6075 14.1833 24.3098C14.1833 22.6953 15.4722 21.3856 17.061 21.3856C18.6499 21.3856 19.9388 22.6953 19.9388 24.3098Z" fill="black"/>
<path d="M16.8657 30.2917L14.9608 32.2274H18.7723L16.8657 30.2917Z" fill="black"/>
</svg>
