<svg width="25" height="35" viewBox="0 0 25 35" fill="none" xmlns="http://www.w3.org/2000/svg">
<path d="M22 0H3C1.34315 0 0 1.34315 0 3V31.9398C0 33.5966 1.34315 34.9398 3 34.9398H22C23.6569 34.9398 25 33.5966 25 31.9398V3C25 1.34315 23.6569 0 22 0Z" fill="#F7F8FA"/>
<path d="M3.01208 12.3696V14.3053H7.83825V17.1686H10.2513V14.3053H11.747V12.0268H10.2513V2.71082H7.9978L3.01208 12.3696ZM7.579 8.01405L8.0177 6.54205L7.83825 8.05435V12.0268H5.5448L7.579 8.01405Z" fill="#CC002C"/>
<path d="M17.8926 31.9277L13.5542 26.5061L17.8926 21.0844L22.2292 26.5061L17.8926 31.9277Z" fill="#CC002C"/>
</svg>
