<svg width="25" height="35" viewBox="0 0 25 35" fill="none" xmlns="http://www.w3.org/2000/svg">
<path d="M22 0H3C1.34315 0 0 1.34315 0 3V31.9398C0 33.5966 1.34315 34.9398 3 34.9398H22C23.6569 34.9398 25 33.5966 25 31.9398V3C25 1.34315 23.6569 0 22 0Z" fill="#F7F8FA"/>
<path d="M7.0684 17.3832C7.2062 17.3832 7.34405 17.3832 7.4819 17.3633L8.23015 18.9758H11.1248L9.7661 16.5869C10.6325 15.8901 11.1445 14.7155 11.1445 13.0432V7.0508C11.1445 4.1243 9.5298 2.71082 7.08805 2.71082C4.62665 2.71082 3.01196 4.1243 3.01196 7.0508V13.0432C3.01196 16.0493 4.56758 17.3832 7.0684 17.3832ZM5.6309 12.8442V7.17025C5.6309 5.71695 6.04445 5.00025 7.0684 5.00025C8.112 5.00025 8.52555 5.67715 8.52555 7.17025V12.8442C8.52555 14.2975 8.112 14.9942 7.08805 14.9942C6.04445 14.9942 5.6309 14.2975 5.6309 12.8442Z" fill="#CC002C"/>
<path d="M17.8926 31.9277L13.5542 26.5061L17.8926 21.0844L22.2292 26.5061L17.8926 31.9277Z" fill="#CC002C"/>
</svg>
