<svg width="25" height="35" viewBox="0 0 25 35" fill="none" xmlns="http://www.w3.org/2000/svg">
<path d="M22 0H3C1.34315 0 0 1.34315 0 3V31.9398C0 33.5966 1.34315 34.9398 3 34.9398H22C23.6568 34.9398 25 33.5966 25 31.9398V3C25 1.34315 23.6568 0 22 0Z" fill="#F7F8FA"/>
<path d="M3.01208 2.71082V5.2717H7.95055C6.27685 8.498 4.80977 12.1477 3.9006 17.1686H7.00005C7.68195 12.6316 8.8184 8.96175 10.8434 4.88857V2.71082H3.01208Z" fill="#CC002C"/>
<path d="M17.8926 31.9277L13.5542 26.5061L17.8926 21.0844L22.2292 26.5061L17.8926 31.9277Z" fill="#CC002C"/>
</svg>
