<svg width="25" height="35" viewBox="0 0 25 35" fill="none" xmlns="http://www.w3.org/2000/svg">
<path d="M22 0H3C1.34315 0 0 1.34315 0 3V31.9398C0 33.5966 1.34315 34.9398 3 34.9398H22C23.6569 34.9398 25 33.5966 25 31.9398V3C25 1.34315 23.6569 0 22 0Z" fill="#F7F8FA"/>
<path d="M3.01196 2.71082V17.1686H5.57745V11.6235L6.5548 9.849L6.7177 10.5951L8.8556 17.1686H11.7469L8.5095 8.0342L11.5229 2.71082H8.57055L5.6589 8.17535L5.53675 8.51815L5.57745 7.8124V2.71082H3.01196Z" fill="#CC002C"/>
<path d="M17.8926 31.9277L13.5542 26.5061L17.8926 21.0844L22.2292 26.5061L17.8926 31.9277Z" fill="#CC002C"/>
</svg>
