<svg width="25" height="35" viewBox="0 0 25 35" fill="none" xmlns="http://www.w3.org/2000/svg">
<path d="M22 0H3C1.34315 0 0 1.34315 0 3V31.9398C0 33.5966 1.34315 34.9398 3 34.9398H22C23.6569 34.9398 25 33.5966 25 31.9398V3C25 1.34315 23.6569 0 22 0Z" fill="#F7F8FA"/>
<path d="M3.01196 13.3755C3.01196 16.0764 4.2971 17.1686 6.767 17.1686C9.3172 17.1686 10.5421 15.9572 10.5421 13.0974V2.71082H7.8513V13.0577C7.8513 14.3486 7.5903 14.7656 6.767 14.7656C5.96375 14.7656 5.70275 14.2692 5.70275 13.3755V11.3101H3.01196V13.3755Z" fill="#CC002C"/>
<path d="M17.8926 31.9277L13.5542 26.5061L17.8926 21.0844L22.2292 26.5061L17.8926 31.9277Z" fill="#CC002C"/>
</svg>
