<svg width="25" height="35" viewBox="0 0 25 35" fill="none" xmlns="http://www.w3.org/2000/svg">
<path d="M22 0H3C1.34315 0 0 1.34315 0 3V31.9398C0 33.5966 1.34315 34.9398 3 34.9398H22C23.6569 34.9398 25 33.5966 25 31.9398V3C25 1.34315 23.6569 0 22 0Z" fill="#F7F8FA"/>
<path d="M5.5966 17.1686L5.9973 15.0312H9.04275L9.4635 17.1686H12.0481L8.78225 2.71082H6.19765L3.01196 17.1686H5.5966ZM7.3397 7.9334L7.5 5.91695L7.66025 7.9334L8.60195 12.7527H6.4381L7.3397 7.9334Z" fill="#CC002C"/>
<path d="M17.8926 31.9277L13.5542 26.5061L17.8926 21.0844L22.2292 26.5061L17.8926 31.9277Z" fill="#CC002C"/>
</svg>
