<svg width="25" height="35" viewBox="0 0 25 35" fill="none" xmlns="http://www.w3.org/2000/svg">
<path d="M22 0H3C1.34315 0 0 1.34315 0 3V31.9398C0 33.5966 1.34315 34.9398 3 34.9398H22C23.6569 34.9398 25 33.5966 25 31.9398V3C25 1.34315 23.6569 0 22 0Z" fill="#F7F8FA"/>
<path d="M3.01208 14.1346C3.01208 16.1517 4.36751 17.4699 7.0584 17.4699C9.74935 17.4699 11.1446 16.1118 11.1446 14.1346V12.2773C11.1446 11.019 10.5666 10.1603 9.6098 9.74085C10.5467 9.32145 10.9852 8.5026 10.9852 7.32425V5.9662C10.9852 4.02895 9.6098 2.71082 7.07835 2.71082C4.58677 2.71082 3.23134 4.06889 3.23134 5.9662V7.34425C3.23134 8.5625 3.68979 9.36135 4.56683 9.7608C3.59013 10.1802 3.01208 11.0989 3.01208 12.2773V14.1346ZM5.66315 13.7751V12.0975C5.66315 11.4384 6.10165 10.7994 6.9986 10.7994H7.13815C8.075 10.7994 8.53345 11.3785 8.53345 12.0775V13.7551C8.53345 14.5739 8.0152 15.0533 7.07835 15.0533C6.1814 15.0533 5.66315 14.554 5.66315 13.7751ZM7.0983 4.98758C8.0351 4.98758 8.43375 5.4669 8.43375 6.26575V7.46405C8.43375 8.16305 8.05505 8.7223 7.1581 8.7223H7.01855C6.1216 8.7223 5.7628 8.1431 5.7628 7.48405V6.28575C5.7628 5.4669 6.2013 4.98758 7.0983 4.98758Z" fill="#CC002C"/>
<path d="M17.8926 31.9277L13.5542 26.5061L17.8926 21.0844L22.2292 26.5061L17.8926 31.9277Z" fill="#CC002C"/>
</svg>
