<svg width="25" height="35" viewBox="0 0 25 35" fill="none" xmlns="http://www.w3.org/2000/svg">
<path d="M22 0H3C1.34315 0 0 1.34315 0 3V31.9398C0 33.5966 1.34315 34.9398 3 34.9398H22C23.6569 34.9398 25 33.5966 25 31.9398V3C25 1.34315 23.6569 0 22 0Z" fill="#F7F8FA"/>
<path d="M3.01208 12.0102V13.9301C3.01208 16.19 4.225 17.4699 7.00875 17.4699C9.87205 17.4699 11.1446 16.0099 11.1446 13.9501V12.3902C11.1446 11.0302 10.5879 10.2104 9.534 9.83035C10.5481 9.4104 10.9656 8.57045 10.9656 7.3505V5.9506C10.9656 3.95074 9.6533 2.71082 7.0485 2.71082C4.56303 2.71082 3.13139 3.99073 3.13139 6.1306V7.7705H5.7163V6.3106C5.7163 5.49065 6.0941 5.03065 7.02865 5.03065C8.00295 5.03065 8.341 5.45065 8.341 6.3106V7.5305C8.341 8.41045 7.88365 8.8504 6.98885 8.8504H5.9748V10.9103H6.969C8.00295 10.9103 8.4603 11.2903 8.4603 12.1902V13.6101C8.4603 14.55 8.0825 15.03 7.02865 15.03C6.05435 15.03 5.63675 14.6101 5.63675 13.7101V12.0102H3.01208Z" fill="#CC002C"/>
<path d="M11.7296 27.4207L12.2895 27.9772L16.5671 32.229L21.4029 27.4224C22.5846 26.2478 22.5846 24.3451 21.4029 23.1706C20.2212 21.996 18.307 21.996 17.1253 23.1706L16.5671 23.7254L16.0072 23.1689C14.8255 21.996 12.9113 21.996 11.7296 23.1689C10.5479 24.3435 10.5479 26.2461 11.7296 27.4207Z" fill="#CC002C"/>
</svg>
