<svg width="25" height="35" viewBox="0 0 25 35" fill="none" xmlns="http://www.w3.org/2000/svg">
<path d="M22 0H3C1.34315 0 0 1.34315 0 3V31.9398C0 33.5966 1.34315 34.9398 3 34.9398H22C23.6568 34.9398 25 33.5966 25 31.9398V3C25 1.34315 23.6568 0 22 0Z" fill="#F7F8FA"/>
<path d="M7.0685 17.4699C9.64805 17.4699 11.1446 16.1517 11.1446 13.4356V11.9178C11.1446 9.60105 10.0419 8.52255 8.13185 8.52255C6.8519 8.52255 6.04455 9.1816 5.63105 10.0404V7.18445C5.63105 5.72655 6.06425 4.98758 7.14725 4.98758C8.0334 4.98758 8.4075 5.50685 8.4075 6.48545V7.4441H11.0462V6.4455C11.0265 4.02895 9.7662 2.71082 7.18665 2.71082C4.44955 2.71082 3.01208 4.16875 3.01208 7.12455V13.0561C3.01208 16.0319 4.44956 17.4699 7.0685 17.4699ZM7.1079 10.5797C8.15155 10.5797 8.54535 11.2188 8.54535 12.1175V13.2958C8.54535 14.4142 8.09245 15.0533 7.0685 15.0533C6.04455 15.0533 5.63105 14.3942 5.63105 12.9563V11.5383C5.86735 10.9591 6.3793 10.5797 7.1079 10.5797Z" fill="#CC002C"/>
<path d="M11.7296 27.4207L12.2895 27.9772L16.5671 32.229L21.4029 27.4224C22.5846 26.2478 22.5846 24.3451 21.4029 23.1706C20.2212 21.996 18.307 21.996 17.1253 23.1706L16.5671 23.7254L16.0072 23.1689C14.8255 21.996 12.9113 21.996 11.7296 23.1689C10.5479 24.3435 10.5479 26.2461 11.7296 27.4207Z" fill="#CC002C"/>
</svg>
