<svg width="25" height="35" viewBox="0 0 25 35" fill="none" xmlns="http://www.w3.org/2000/svg">
<path d="M22 0H3C1.34315 0 0 1.34315 0 3V31.9398C0 33.5966 1.34315 34.9398 3 34.9398H22C23.6568 34.9398 25 33.5966 25 31.9398V3C25 1.34315 23.6568 0 22 0Z" fill="#F7F8FA"/>
<path d="M3.01208 11.913V13.4798C3.01208 15.9589 4.33362 17.1686 7.119 17.1686C9.86375 17.1686 11.1446 15.7804 11.1446 13.4005V10.4851C11.1446 8.4027 10.311 7.0541 8.2779 7.07395C6.81405 7.0541 6.1431 7.68875 5.65515 8.54155C5.71615 8.00605 5.77715 7.1731 5.89915 6.28065C5.96015 5.86415 6.0211 5.42785 6.04145 5.05105H8.31855C9.7824 5.05105 10.4534 4.93205 10.7177 4.31724C10.8193 3.99992 10.9007 3.50411 10.9007 2.84964V2.71082H3.88633L3.09341 9.91L5.57385 10.5446C5.59415 10.5248 5.71615 10.1877 5.71615 10.1877C6.0211 9.65215 6.42775 9.2357 7.1597 9.2357C8.05425 9.2357 8.4812 9.69185 8.4812 10.624V13.1625C8.4812 14.1938 8.1559 14.7887 7.119 14.7887C6.1228 14.7887 5.77715 14.3326 5.77715 13.2815V11.913H3.01208Z" fill="#CC002C"/>
<path d="M11.7296 27.4207L12.2895 27.9772L16.5671 32.229L21.4029 27.4224C22.5846 26.2478 22.5846 24.3451 21.4029 23.1706C20.2212 21.996 18.307 21.996 17.1253 23.1706L16.5671 23.7254L16.0072 23.1689C14.8255 21.996 12.9113 21.996 11.7296 23.1689C10.5479 24.3435 10.5479 26.2461 11.7296 27.4207Z" fill="#CC002C"/>
</svg>
