<svg width="25" height="35" viewBox="0 0 25 35" fill="none" xmlns="http://www.w3.org/2000/svg">
<path d="M22 0H3C1.34315 0 0 1.34315 0 3V31.9398C0 33.5966 1.34315 34.9398 3 34.9398H22C23.6569 34.9398 25 33.5966 25 31.9398V3C25 1.34315 23.6569 0 22 0Z" fill="#F7F8FA"/>
<path d="M9.34065 17.2302V14.7537H7.5007V2.91052H5.4585C5.1552 4.20868 4.56886 4.86774 3.37591 5.04749V6.94479H4.93281V14.7537H3.01196V17.2302H9.34065Z" fill="#CC002C"/>
<path d="M10.3038 13.0761C10.3038 16.0918 11.9011 17.4699 14.4892 17.4699C17.0166 17.4699 18.6746 16.0918 18.6746 13.0761V7.0846C18.6746 4.14878 17.0166 2.71082 14.4892 2.71082C11.9618 2.71082 10.3038 4.14878 10.3038 7.0846V13.0761ZM14.4892 4.98758C15.5406 4.98758 15.9652 5.6866 15.9652 7.18445V12.9363C15.9652 14.3942 15.5406 15.0933 14.4892 15.0933C13.4176 15.0933 13.0132 14.3942 13.0132 12.9363V7.18445C13.0132 5.7465 13.4176 4.98758 14.4892 4.98758Z" fill="#CC002C"/>
<path d="M11.7296 27.4207L12.2895 27.9772L16.5671 32.229L21.4029 27.4224C22.5846 26.2478 22.5846 24.3451 21.4029 23.1706C20.2212 21.996 18.307 21.996 17.1253 23.1706L16.5671 23.7254L16.0072 23.1689C14.8255 21.996 12.9113 21.996 11.7296 23.1689C10.5479 24.3435 10.5479 26.2461 11.7296 27.4207Z" fill="#CC002C"/>
</svg>
