<svg width="25" height="35" viewBox="0 0 25 35" fill="none" xmlns="http://www.w3.org/2000/svg">
<path d="M22 0H3C1.34315 0 0 1.34315 0 3V31.9398C0 33.5966 1.34315 34.9398 3 34.9398H22C23.6569 34.9398 25 33.5966 25 31.9398V3C25 1.34315 23.6569 0 22 0Z" fill="#F7F8FA"/>
<path d="M6.1581 11.4584C7.48385 11.4584 8.1962 10.7794 8.57215 9.9605V13.1161C8.57215 14.4941 8.216 15.1332 7.16725 15.1332C6.1581 15.1332 5.78215 14.6139 5.78215 13.6353V12.3571H3.09111V13.7551C3.1109 16.1317 4.37728 17.4699 7.04855 17.4699C9.79895 17.4699 11.1445 15.992 11.1445 13.0961V7.1445C11.1445 4.04892 9.7396 2.71082 7.04855 2.71082C4.45642 2.71082 3.01196 4.10883 3.01196 6.64525V8.10315C3.01196 10.36 4.15962 11.4584 6.1581 11.4584ZM5.66345 6.70515C5.66345 5.6067 6.11855 5.00755 7.0881 5.00755C8.1764 5.00755 8.57215 5.6866 8.57215 7.04465V8.38275C8.3545 9.02185 7.8598 9.44125 7.0881 9.44125C6.11855 9.44125 5.66345 8.922 5.66345 8.02325V6.70515Z" fill="#CC002C"/>
<path d="M11.7296 27.4207L12.2895 27.9772L16.5671 32.229L21.4029 27.4224C22.5846 26.2478 22.5846 24.3451 21.4029 23.1706C20.2212 21.996 18.307 21.996 17.1253 23.1706L16.5671 23.7254L16.0072 23.1689C14.8255 21.996 12.9113 21.996 11.7296 23.1689C10.5479 24.3435 10.5479 26.2461 11.7296 27.4207Z" fill="#CC002C"/>
</svg>
