<svg width="25" height="35" viewBox="0 0 25 35" fill="none" xmlns="http://www.w3.org/2000/svg">
<path d="M22 0H3C1.34315 0 0 1.34315 0 3V31.9398C0 33.5966 1.34315 34.9398 3 34.9398H22C23.6568 34.9398 25 33.5966 25 31.9398V3C25 1.34315 23.6568 0 22 0Z" fill="#F7F8FA"/>
<path d="M3.01208 2.71082V5.2717H7.95055C6.27685 8.498 4.80977 12.1477 3.9006 17.1686H7.00005C7.68195 12.6316 8.8184 8.96175 10.8434 4.88857V2.71082H3.01208Z" fill="#CC002C"/>
<path d="M11.7296 27.4207L12.2895 27.9772L16.5671 32.229L21.4029 27.4224C22.5846 26.2478 22.5846 24.3451 21.4029 23.1706C20.2212 21.996 18.307 21.996 17.1253 23.1706L16.5671 23.7254L16.0072 23.1689C14.8255 21.996 12.9113 21.996 11.7296 23.1689C10.5479 24.3435 10.5479 26.2461 11.7296 27.4207Z" fill="#CC002C"/>
</svg>
