<svg width="25" height="35" viewBox="0 0 25 35" fill="none" xmlns="http://www.w3.org/2000/svg">
<path d="M22 0H3C1.34315 0 0 1.34315 0 3V31.9398C0 33.5966 1.34315 34.9398 3 34.9398H22C23.6569 34.9398 25 33.5966 25 31.9398V3C25 1.34315 23.6569 0 22 0Z" fill="#F7F8FA"/>
<path d="M3.01196 13.3755C3.01196 16.0764 4.2971 17.1686 6.767 17.1686C9.3172 17.1686 10.5421 15.9572 10.5421 13.0974V2.71082H7.8513V13.0577C7.8513 14.3486 7.5903 14.7656 6.767 14.7656C5.96375 14.7656 5.70275 14.2692 5.70275 13.3755V11.3101H3.01196V13.3755Z" fill="black"/>
<path d="M21.4519 26.0777L20.9209 25.5343L16.8684 21.3856L12.2849 26.0758C11.1661 27.2207 11.1661 29.0779 12.2849 30.2227C13.4037 31.3676 15.2186 31.3676 16.3374 30.2227L16.8666 29.6812L17.3976 30.2246C18.5164 31.3694 20.3313 31.3694 21.4501 30.2246C22.5689 29.0797 22.5689 27.2225 21.4501 26.0777H21.4519ZM14.9611 32.229H18.7757L16.8684 30.2773L14.9611 32.229Z" fill="black"/>
</svg>
