<svg width="25" height="35" viewBox="0 0 25 35" fill="none" xmlns="http://www.w3.org/2000/svg">
<path d="M22 0H3C1.34315 0 0 1.34315 0 3V31.9398C0 33.5966 1.34315 34.9398 3 34.9398H22C23.6569 34.9398 25 33.5966 25 31.9398V3C25 1.34315 23.6569 0 22 0Z" fill="#F7F8FA"/>
<path d="M5.5966 17.1686L5.9973 15.0312H9.04275L9.4635 17.1686H12.0481L8.78225 2.71082H6.19765L3.01196 17.1686H5.5966ZM7.3397 7.9334L7.5 5.91695L7.66025 7.9334L8.60195 12.7527H6.4381L7.3397 7.9334Z" fill="black"/>
<path d="M21.4519 26.0777L20.9209 25.5343L16.8684 21.3856L12.2849 26.0758C11.1661 27.2207 11.1661 29.0779 12.2849 30.2227C13.4037 31.3676 15.2186 31.3676 16.3374 30.2227L16.8666 29.6812L17.3976 30.2246C18.5164 31.3694 20.3313 31.3694 21.4501 30.2246C22.5689 29.0797 22.5689 27.2225 21.4501 26.0777H21.4519ZM14.9611 32.229H18.7757L16.8684 30.2773L14.9611 32.229Z" fill="black"/>
</svg>
