<svg width="25" height="35" viewBox="0 0 25 35" fill="none" xmlns="http://www.w3.org/2000/svg">
<path d="M22 0H3C1.34315 0 0 1.34315 0 3V31.9398C0 33.5966 1.34315 34.9398 3 34.9398H22C23.6569 34.9398 25 33.5966 25 31.9398V3C25 1.34315 23.6569 0 22 0Z" fill="#F7F8FA"/>
<path d="M3.01208 17.1686H10.8041V14.7027H5.91695V14.6033C5.9562 13.2708 7.13385 12.3759 8.0956 11.66C9.705 10.4469 10.8434 9.37295 10.8434 7.22515V6.2109C10.8434 3.92392 9.548 2.71082 6.9768 2.71082C4.44489 2.71082 3.07097 3.9637 3.07097 6.2109V8.27915H5.6618V6.31035C5.6618 5.4552 6.05435 4.95805 6.9768 4.95805C7.8993 4.95805 8.2526 5.41545 8.2526 6.31035V7.22515C8.2526 8.0803 7.78155 8.6968 7.0946 9.2735C6.7609 9.55195 6.36835 9.85025 5.9758 10.1486C4.26824 11.4611 3.01208 12.6941 3.01208 14.9612V17.1686Z" fill="black"/>
<path d="M21.4519 26.0777L20.9209 25.5343L16.8684 21.3856L12.2849 26.0758C11.1661 27.2207 11.1661 29.0779 12.2849 30.2227C13.4037 31.3676 15.2186 31.3676 16.3374 30.2227L16.8666 29.6812L17.3976 30.2246C18.5164 31.3694 20.3313 31.3694 21.4501 30.2246C22.5689 29.0797 22.5689 27.2225 21.4501 26.0777H21.4519ZM14.9611 32.229H18.7757L16.8684 30.2773L14.9611 32.229Z" fill="black"/>
</svg>
