<svg width="25" height="35" viewBox="0 0 25 35" fill="none" xmlns="http://www.w3.org/2000/svg">
<path d="M22 0H3C1.34315 0 0 1.34315 0 3V31.9398C0 33.5966 1.34315 34.9398 3 34.9398H22C23.6569 34.9398 25 33.5966 25 31.9398V3C25 1.34315 23.6569 0 22 0Z" fill="#F7F8FA"/>
<path d="M7.0684 17.3832C7.2062 17.3832 7.34405 17.3832 7.4819 17.3633L8.23015 18.9758H11.1248L9.7661 16.5869C10.6325 15.8901 11.1445 14.7155 11.1445 13.0432V7.0508C11.1445 4.1243 9.5298 2.71082 7.08805 2.71082C4.62665 2.71082 3.01196 4.1243 3.01196 7.0508V13.0432C3.01196 16.0493 4.56758 17.3832 7.0684 17.3832ZM5.6309 12.8442V7.17025C5.6309 5.71695 6.04445 5.00025 7.0684 5.00025C8.112 5.00025 8.52555 5.67715 8.52555 7.17025V12.8442C8.52555 14.2975 8.112 14.9942 7.08805 14.9942C6.04445 14.9942 5.6309 14.2975 5.6309 12.8442Z" fill="black"/>
<path d="M21.4519 26.0777L20.9209 25.5343L16.8684 21.3856L12.2849 26.0758C11.1661 27.2207 11.1661 29.0779 12.2849 30.2227C13.4037 31.3676 15.2186 31.3676 16.3374 30.2227L16.8666 29.6812L17.3976 30.2246C18.5164 31.3694 20.3313 31.3694 21.4501 30.2246C22.5689 29.0797 22.5689 27.2225 21.4501 26.0777H21.4519ZM14.9611 32.229H18.7757L16.8684 30.2773L14.9611 32.229Z" fill="black"/>
</svg>
