<svg width="25" height="35" viewBox="0 0 25 35" fill="none" xmlns="http://www.w3.org/2000/svg">
<path d="M22 0H3C1.34315 0 0 1.34315 0 3V31.9398C0 33.5966 1.34315 34.9398 3 34.9398H22C23.6569 34.9398 25 33.5966 25 31.9398V3C25 1.34315 23.6569 0 22 0Z" fill="#F7F8FA"/>
<path d="M9.34065 17.2302V14.7537H7.5007V2.91052H5.4585C5.1552 4.20868 4.56886 4.86774 3.37591 5.04749V6.94479H4.93281V14.7537H3.01196V17.2302H9.34065Z" fill="black"/>
<path d="M10.3038 13.0761C10.3038 16.0918 11.9011 17.4699 14.4892 17.4699C17.0166 17.4699 18.6746 16.0918 18.6746 13.0761V7.0846C18.6746 4.14878 17.0166 2.71082 14.4892 2.71082C11.9618 2.71082 10.3038 4.14878 10.3038 7.0846V13.0761ZM14.4892 4.98758C15.5406 4.98758 15.9652 5.6866 15.9652 7.18445V12.9363C15.9652 14.3942 15.5406 15.0933 14.4892 15.0933C13.4176 15.0933 13.0132 14.3942 13.0132 12.9363V7.18445C13.0132 5.7465 13.4176 4.98758 14.4892 4.98758Z" fill="black"/>
<path d="M21.4519 26.0777L20.9209 25.5343L16.8684 21.3856L12.2849 26.0758C11.1661 27.2207 11.1661 29.0779 12.2849 30.2227C13.4037 31.3676 15.2186 31.3676 16.3374 30.2227L16.8666 29.6812L17.3976 30.2246C18.5164 31.3694 20.3313 31.3694 21.4501 30.2246C22.5689 29.0797 22.5689 27.2225 21.4501 26.0777H21.4519ZM14.9611 32.229H18.7757L16.8684 30.2773L14.9611 32.229Z" fill="black"/>
</svg>
